<svg width="24" height="24" viewBox="0 0 24 24" fill="none" xmlns="http://www.w3.org/2000/svg">
<g clip-path="url(#clip0_3202_2125)">
<path d="M22.1943 9.31319L15.2413 2.35936C14.3808 1.50135 13.2152 1.01953 12 1.01953C10.7848 1.01953 9.61921 1.50135 8.75868 2.35936L1.80576 9.31319C1.54948 9.56782 1.3463 9.8708 1.20799 10.2045C1.06967 10.5383 0.998982 10.8962 1.00001 11.2574V20.2564C1.00001 20.9857 1.28974 21.6852 1.80547 22.2009C2.32119 22.7166 3.02067 23.0064 3.75001 23.0064H20.25C20.9794 23.0064 21.6788 22.7166 22.1946 22.2009C22.7103 21.6852 23 20.9857 23 20.2564V11.2574C23.001 10.8962 22.9303 10.5383 22.792 10.2045C22.6537 9.8708 22.4505 9.56782 22.1943 9.31319ZM14.75 21.173H9.25001V17.5669C9.25001 16.8375 9.53974 16.138 10.0555 15.6223C10.5712 15.1066 11.2707 14.8169 12 14.8169C12.7294 14.8169 13.4288 15.1066 13.9446 15.6223C14.4603 16.138 14.75 16.8375 14.75 17.5669V21.173ZM21.1667 20.2564C21.1667 20.4995 21.0701 20.7326 20.8982 20.9045C20.7263 21.0764 20.4931 21.173 20.25 21.173H16.5833V17.5669C16.5833 16.3513 16.1005 15.1855 15.2409 14.3259C14.3814 13.4664 13.2156 12.9835 12 12.9835C10.7844 12.9835 9.61865 13.4664 8.75911 14.3259C7.89956 15.1855 7.41668 16.3513 7.41668 17.5669V21.173H3.75001C3.5069 21.173 3.27374 21.0764 3.10183 20.9045C2.92992 20.7326 2.83334 20.4995 2.83334 20.2564V11.2574C2.83419 11.0145 2.93068 10.7817 3.10193 10.6094L10.0548 3.65827C10.5716 3.14396 11.271 2.85522 12 2.85522C12.7291 2.85522 13.4285 3.14396 13.9452 3.65827L20.8981 10.6121C21.0687 10.7837 21.1651 11.0155 21.1667 11.2574V20.2564Z" fill="#282B2C"/>
</g>
<defs>
<clipPath id="clip0_3202_2125">
<rect width="22" height="22" fill="white" transform="translate(1 1)"/>
</clipPath>
</defs>
</svg>
